<svg t="1737515944012" class="icon" viewBox="0 0 1024 1024" version="1.1" xmlns="http://www.w3.org/2000/svg" p-id="34107" width="16" height="16"><path d="M980.725831 557.947421l-79.536471-21.306541c2.662414-48.671248-3.915953-96.457433-18.644126-141.263303l71.390277-41.204205c12.741297-7.311705 17.860213-22.455316 11.437183-33.578212l-56.351429-97.656784c-6.473605-11.126508-22.086841-14.20436-34.882326-6.84208l-71.339702 41.204205c-31.435998-35.146038-69.508163-64.808297-112.959345-86.743414l21.306541-79.536471c3.81119-14.20436-3.236802-28.567671-15.667424-31.855048L586.59818 29.965709c-12.427009-3.341565-25.695731 5.534354-29.506922 19.738714l-21.306541 79.536471c-48.620673-2.662414-96.406858 3.97014-141.212728 18.644126L353.418359 76.548931c-7.365893-12.741297-22.509504-17.910788-33.6324-11.487758L222.129175 121.463176c-11.126508 6.42303-14.20436 22.090454-6.892655 34.835363l41.204205 71.33609c-35.091851 31.439611-64.757722 69.511776-86.743414 112.959345l-79.485896-21.306541c-14.254935-3.81119-28.567671 3.236802-31.909236 15.667424l-29.196246 108.888055c-3.341565 12.427009 5.588542 25.692119 19.792902 29.506922l79.536471 21.306541c-2.712989 48.617061 3.97014 96.406858 18.644126 141.212728l-71.390277 41.204205c-12.741297 7.36228-17.860213 22.455316-11.437183 33.578212L120.657588 808.308305c6.42303 11.122896 22.090454 14.258548 34.781175 6.892655l71.390277-41.200593c31.439611 35.091851 69.511776 64.757722 112.959345 86.743414l-21.306541 79.536471c-3.81119 14.207973 3.236802 28.567671 15.667424 31.855048l108.888055 29.192634c12.427009 3.345177 25.692119-5.588542 29.503309-19.738714l21.306541-79.587046c48.620673 2.712989 96.457433-3.919565 141.212728-18.644126l41.204205 71.390277c7.36228 12.741297 22.455316 17.860213 33.581825 11.491371l97.656784-56.402004c11.122896-6.42303 14.254935-22.090454 6.84208-34.835363l-41.204205-71.33609c35.146038-31.439611 64.808297-69.508163 86.793989-112.962958l79.540083 21.255966c14.20436 3.814803 28.513483-3.236802 31.855048-15.667424l29.192634-108.888055C1003.86391 574.973146 994.933804 561.708036 980.725831 557.947421zM514.788852 737.178127c-122.30489 0-221.482537-99.22461-221.482537-221.533112s99.174035-221.533112 221.482537-221.533112c122.359077 0 221.533112 99.22461 221.533112 221.533112S637.147929 737.178127 514.788852 737.178127z" fill="#3AC1CC" p-id="34108"></path></svg>