<svg t="1737514009087" class="icon" viewBox="0 0 1024 1024" version="1.1" xmlns="http://www.w3.org/2000/svg" p-id="24025" width="32" height="32"><path d="M512.014221 0a511.957337 511.957337 0 1 0 511.957337 511.957337 511.957337 511.957337 0 0 0-511.957337-511.957337z m303.249396 360.048218c-10.096936 79.780018-67.976558 148.723606-151.852235 148.723607a153.388107 153.388107 0 0 1-90.474238-29.266895l5.432436 5.403994s-13.538427 15.671583-35.069077 40.302419l55.035413 55.860234s35.040636-35.865456 48.522179-30.888092c49.346999 18.288254 166.471461 163.342833 166.471461 163.342832l-100.798711 100.116102s-148.211649-115.873011-166.499903-164.594284c-3.925006-10.495125 20.791156-39.818904 20.791156-39.818904l-51.480154-52.304975c-69.569314 79.268061-178.5309 201.938727-229.612866 251.769242-18.800211 18.345138-93.460656-55.888676-74.546677-74.148488 49.858956-48.209316 172.700275-159.986668 251.427937-231.234064l-147.443713-149.576868-60.695386-8.191318-36.775603-80.832375 35.296615-36.974696 80.547954 40.017998 12.912702 57.652085 147.529039 149.775963 39.136294-35.325056 6.769214 6.740771a146.021609 146.021609 0 0 1-28.442074-86.52079c0-82.14071 66.838875-132.31253 151.852234-148.695164a105.662306 105.662306 0 0 1 60.126545 12.173208l-88.426409 94.513013 73.067689 68.545399 89.592534-95.70758a117.181346 117.181346 0 0 1 17.605644 69.142682z" fill="#FF734D" p-id="24026"></path></svg>